<svg width="100" height="100" viewBox="0 0 100 100" fill="none" xmlns="http://www.w3.org/2000/svg">
<g id="icon">
<path id="Vector" d="M25.6411 74.359H47.5962V58.6539H25.6411V74.359ZM25.6411 53.8462H47.5962V25.6411H25.6411V53.8462ZM52.4039 74.359H74.359V46.1539H52.4039V74.359ZM52.4039 41.3462H74.359V25.6411H52.4039V41.3462ZM22.1156 85.4166C20.0109 85.4166 18.2293 84.6875 16.771 83.2291C15.3127 81.7708 14.5835 79.9893 14.5835 77.8845V22.1156C14.5835 20.0109 15.3127 18.2293 16.771 16.771C18.2293 15.3127 20.0109 14.5835 22.1156 14.5835H77.8845C79.9893 14.5835 81.7708 15.3127 83.2291 16.771C84.6875 18.2293 85.4166 20.0109 85.4166 22.1156V30.7694H92.7883V37.0192H85.4166V46.8752H92.7883V53.125H85.4166V62.9809H92.7883V69.2307H85.4166V77.8845C85.4166 79.9893 84.6875 81.7708 83.2291 83.2291C81.7708 84.6875 79.9893 85.4166 77.8845 85.4166H22.1156ZM22.1156 79.1667H77.8845C78.2051 79.1667 78.4989 79.0332 78.7661 78.7661C79.0332 78.4989 79.1667 78.2051 79.1667 77.8845V22.1156C79.1667 21.795 79.0332 21.5012 78.7661 21.234C78.4989 20.9669 78.2051 20.8334 77.8845 20.8334H22.1156C21.795 20.8334 21.5012 20.9669 21.234 21.234C20.9669 21.5012 20.8334 21.795 20.8334 22.1156V77.8845C20.8334 78.2051 20.9669 78.4989 21.234 78.7661C21.5012 79.0332 21.795 79.1667 22.1156 79.1667Z" fill="#DDDDDD"/>
</g>
</svg>
